<svg height="682pt" viewBox="-21 -21 682 682.66669" width="682pt" xmlns="http://www.w3.org/2000/svg"><path d="m274.667969 640c-.015625 0-.035157 0-.054688 0-20.027343-.015625-38.859375-7.828125-53.015625-22.007812l-199.390625-199.675782c-29.164062-29.21875-29.164062-76.761718 0-105.976562l268.78125-269.296875c27.699219-27.753907 64.554688-43.042969 103.773438-43.042969h170.527343c41.351563 0 75 33.640625 75 75v170.003906c0 39.191406-15.273437 76.03125-43 103.726563l-269.617187 269.335937c-14.164063 14.144532-32.988281 21.933594-53.003906 21.933594zm120.09375-590c-25.84375 0-50.128907 10.074219-68.382813 28.363281l-268.785156 269.296875c-9.722656 9.742188-9.722656 25.585938 0 35.328125l199.390625 199.675781c4.714844 4.722657 10.988281 7.332032 17.667969 7.335938h.019531c6.671875 0 12.945313-2.597656 17.664063-7.308594l269.617187-269.332031c18.273437-18.25 28.335937-42.53125 28.335937-68.355469v-170.003906c0-13.785156-11.214843-25-25-25zm64.273437 203.75c-41.355468 0-75-33.640625-75-75s33.644532-75 75-75c41.355469 0 75 33.640625 75 75s-33.644531 75-75 75zm0-100c-13.785156 0-25 11.214844-25 25s11.214844 25 25 25c13.789063 0 25-11.214844 25-25s-11.210937-25-25-25zm0 0"/></svg>