<?xml version="1.0" standalone="no"?>
<!DOCTYPE svg PUBLIC "-//W3C//DTD SVG 20010904//EN"
 "http://www.w3.org/TR/2001/REC-SVG-20010904/DTD/svg10.dtd">
<svg version="1.0" xmlns="http://www.w3.org/2000/svg"
 width="960.000000pt" height="93.000000pt" viewBox="0 0 960.000000 93.000000"
 preserveAspectRatio="xMidYMid meet">

<g transform="translate(0.000000,93.000000) scale(0.100000,-0.100000)"
fill="#000000" stroke="none">
<path d="M2765 660 c-420 -7 -420 -7 -651 -100 -69 -28 -146 -53 -171 -57 -40
-5 -45 -4 -42 12 2 10 19 23 38 30 60 20 70 75 14 75 -36 0 -78 -28 -128 -85
l-40 -46 -45 16 c-24 8 -51 22 -60 29 -8 7 -25 19 -38 25 -20 11 -26 8 -56
-26 l-35 -37 -728 -1 c-718 -1 -785 -3 -815 -33 -30 -30 10 -32 725 -33 397 0
745 -4 774 -8 40 -6 57 -14 73 -34 12 -15 26 -27 32 -27 7 0 34 16 62 35 32
22 68 37 96 41 43 5 46 4 68 -31 66 -105 228 -97 504 22 99 43 145 58 180 58
25 0 49 -3 52 -6 4 -3 -1 -23 -10 -44 -31 -75 8 -155 76 -155 30 0 43 6 64 31
32 37 33 65 5 130 -26 59 -22 67 58 105 73 36 144 36 236 -1 37 -15 66 -32 64
-38 -2 -6 -25 -16 -50 -23 -64 -16 -96 -39 -113 -80 -32 -77 44 -150 128 -124
25 7 43 20 50 36 16 34 0 48 -36 34 -62 -23 -98 -3 -75 43 40 77 96 76 347 -8
297 -100 382 -119 532 -119 108 0 133 3 184 23 88 35 158 79 283 179 135 108
187 135 270 140 105 7 213 -43 147 -68 -14 -6 -29 -10 -34 -10 -5 0 -24 -19
-42 -42 -69 -88 -116 -130 -140 -126 -20 3 -23 9 -23 49 0 56 -17 79 -59 79
-47 0 -79 -37 -78 -91 2 -117 131 -162 277 -95 l61 27 57 -26 c71 -31 76 -31
138 1 l51 25 52 -22 c62 -27 173 -37 216 -19 98 41 111 184 18 206 -21 4 -33
0 -53 -20 -23 -23 -26 -32 -20 -66 6 -38 6 -40 -19 -40 -18 0 -46 18 -90 59
-35 33 -87 76 -115 96 -43 31 -49 40 -41 55 14 26 75 43 131 37 68 -8 155 -56
301 -163 156 -116 175 -127 277 -164 71 -26 95 -30 185 -30 175 0 324 32 580
126 179 66 231 75 265 47 28 -23 32 -71 6 -89 -10 -7 -31 -10 -51 -7 -26 4
-35 2 -40 -12 -10 -24 12 -35 69 -35 41 0 53 5 79 30 26 27 30 36 25 67 -10
58 -65 103 -127 103 -47 0 -33 20 38 57 108 55 235 53 303 -4 34 -29 37 -48 9
-63 -26 -14 -50 -62 -50 -100 0 -21 9 -41 29 -61 40 -39 82 -39 122 1 28 28
30 34 28 97 l-2 68 29 -3 c16 -2 81 -27 144 -57 153 -71 221 -88 335 -83 96 5
134 18 193 69 41 36 59 36 125 -1 66 -37 91 -38 141 -4 61 42 150 45 888 37
552 -7 669 -6 673 5 9 24 5 50 -7 54 -7 3 -215 1 -463 -4 -522 -9 -977 2
-1065 28 -102 29 -106 29 -152 -5 -58 -43 -99 -42 -127 2 -34 55 -55 68 -119
74 -63 6 -102 -7 -102 -33 0 -12 10 -14 58 -9 49 6 61 4 85 -15 15 -12 27 -30
27 -41 0 -34 -83 -25 -233 25 -289 96 -509 131 -827 130 -292 0 -382 -16 -563
-100 -64 -29 -121 -54 -126 -54 -6 0 -13 21 -17 48 -8 54 -26 79 -72 99 -27
11 -41 12 -68 3 -62 -21 -100 -101 -54 -113 15 -4 27 4 46 29 15 19 32 34 39
34 24 0 50 -41 50 -80 0 -49 -28 -80 -109 -120 -98 -49 -214 -38 -264 25 -12
15 -22 37 -22 47 0 18 5 19 36 13 79 -14 122 34 90 102 -20 41 -74 68 -122 58
-48 -9 -92 -63 -100 -125 -4 -31 -12 -50 -20 -50 -7 0 -48 26 -91 59 -96 72
-180 115 -257 131 -70 14 -103 9 -178 -30 l-57 -30 -61 31 c-34 18 -81 34
-109 37 -99 9 -235 -54 -377 -174 -28 -24 -54 -44 -58 -44 -3 0 -6 15 -6 33 0
54 -18 102 -51 133 -25 24 -39 29 -80 29 -44 0 -54 -4 -80 -33 -37 -41 -37
-72 -1 -110 26 -27 33 -30 71 -25 41 6 43 5 32 -14 -18 -34 -69 -72 -106 -79
-53 -10 -117 4 -187 39 -49 25 -67 41 -82 71 -17 35 -18 42 -5 65 19 33 62 49
83 32 9 -8 21 -31 26 -53 14 -51 43 -50 48 2 5 47 -23 96 -61 109 -73 26 -128
-1 -148 -72 -7 -23 -16 -46 -20 -51 -4 -5 -59 17 -121 47 -121 60 -201 83
-313 90 -38 2 -236 1 -440 -3z m-40 -70 c0 -8 -18 -25 -40 -37 -36 -20 -52
-22 -150 -21 -120 3 -156 -6 -350 -88 -67 -28 -108 -38 -160 -41 -69 -4 -116
9 -119 32 0 6 35 19 79 31 44 12 139 40 210 64 193 63 280 79 415 77 94 -2
115 -5 115 -17z m630 -9 c39 -12 166 -70 283 -129 l213 -107 82 2 c71 1 80 0
64 -12 -25 -18 -133 -29 -204 -20 -90 11 -231 60 -428 148 -99 44 -211 91
-250 103 -38 12 -71 28 -73 34 -7 21 228 7 313 -19z m3205 16 c0 -8 -53 -36
-117 -65 -65 -28 -180 -78 -255 -111 -179 -79 -352 -124 -402 -105 -26 10 -19
21 25 38 22 9 93 46 157 81 129 72 293 140 386 160 84 18 206 19 206 2z m525
-2 c76 -8 257 -55 366 -96 63 -23 212 -59 247 -59 1 0 2 -7 2 -15 0 -25 -49
-37 -125 -32 -53 4 -106 18 -217 61 -93 36 -175 60 -225 67 -115 16 -122 18
-143 39 -30 30 -26 53 8 46 15 -2 54 -8 87 -11z m912 -121 c8 -23 -12 -37 -41
-30 -23 6 -25 9 -16 26 13 24 48 26 57 4z m-6322 -14 c0 -23 -59 -20 -63 3 -3
15 2 18 30 15 21 -2 33 -8 33 -18z m5335 -29 c0 -45 -10 -61 -36 -61 -21 0
-24 5 -24 35 0 22 6 38 18 44 30 18 42 12 42 -18z m-4356 -7 c13 -34 7 -64
-14 -64 -17 0 -20 7 -20 40 0 41 21 57 34 24z"/>
</g>
</svg>
