<?xml version="1.0" standalone="no"?>
<!DOCTYPE svg PUBLIC "-//W3C//DTD SVG 20010904//EN"
 "http://www.w3.org/TR/2001/REC-SVG-20010904/DTD/svg10.dtd">
<svg version="1.0" xmlns="http://www.w3.org/2000/svg"
 width="450.000000pt" height="326.000000pt" viewBox="0 0 450.000000 326.000000"
 preserveAspectRatio="xMidYMid meet">

<g transform="translate(0.000000,326.000000) scale(0.100000,-0.100000)"
fill="#000000" stroke="none">
<path d="M1687 3187 c27 -45 579 -837 583 -836 3 0 105 145 227 322 122 177
253 368 293 425 l71 102 -591 0 c-490 0 -590 -2 -583 -13z"/>
<path d="M70 3185 c0 -11 1632 -2360 1640 -2360 5 0 343 484 752 1075 l744
1075 412 3 c227 1 412 -1 412 -5 -1 -13 -1765 -2556 -1775 -2560 -6 -1 -67 84
-137 189 l-126 191 -24 -44 c-20 -38 -23 -58 -23 -149 0 -84 4 -112 19 -140
44 -80 289 -431 296 -423 8 8 2159 3116 2174 3141 6 9 -130 12 -666 12 l-673
0 -680 -982 c-374 -540 -687 -990 -695 -999 -14 -16 -65 54 -624 864 -335 485
-611 888 -614 895 -3 9 83 12 406 12 l410 0 348 -497 348 -496 26 54 c20 44
25 69 25 135 0 70 -4 87 -30 136 -16 30 -158 240 -315 466 l-285 411 -672 1
c-370 0 -673 -2 -673 -5z"/>
</g>
</svg>
