<svg id="Layer_1" height="512" viewBox="0 0 36 36" width="512" xmlns="http://www.w3.org/2000/svg" data-name="Layer 1"><path d="m32.44 3.56a5.3 5.3 0 0 0 -3.77-1.56h-21.34a5.33 5.33 0 0 0 -5.33 5.33v21.34a5.33 5.33 0 0 0 5.33 5.33h21.34a5.33 5.33 0 0 0 5.33-5.33v-21.34a5.29 5.29 0 0 0 -1.56-3.77zm-13.37.57h6.4v11.74l-1.92-1.44a2.15 2.15 0 0 0 -2.56 0l-1.92 1.44zm12.8 24.53a3.2 3.2 0 0 1 -3.2 3.2h-21.34a3.2 3.2 0 0 1 -3.2-3.2v-21.33a3.2 3.2 0 0 1 3.2-3.2h9.6v11.74a2.13 2.13 0 0 0 3.41 1.71l1.92-1.44 1.92 1.44a2.14 2.14 0 0 0 2.23.2 2.12 2.12 0 0 0 1.18-1.91v-11.74h1.07a3.2 3.2 0 0 1 3.2 3.2z"/></svg>