<svg id="Capa_1" enable-background="new 0 0 512 512" height="512" viewBox="0 0 512 512" width="512" xmlns="http://www.w3.org/2000/svg"><g><path d="m498.87 433.676-126.621-398.363c-7.856-24.695-34.336-38.404-59.027-30.558l-45.757 14.542c-3.183 1.013-6.201 2.352-9.029 3.965-8.173-13.903-23.28-23.262-40.54-23.262h-48c-12.354 0-23.603 4.798-32 12.62-8.398-7.822-19.646-12.62-32-12.62h-48c-25.916 0-47 21.084-47 47v418c0 25.916 21.084 47 47 47h48c12.354 0 23.603-4.798 32-12.62 8.397 7.821 19.646 12.62 32 12.62h48c25.916 0 47-21.084 47-47v-298.659l98.645 310.346c6.355 19.98 24.902 32.769 44.831 32.769 4.703 0 9.483-.712 14.197-2.21l45.756-14.542c11.961-3.807 21.727-12.042 27.497-23.187 5.772-11.152 6.854-23.883 3.048-35.841zm-77.059-143.398-78.147 24.84-49.073-154.389 78.147-24.84zm9.088 28.59 10.299 32.403-78.147 24.84-10.299-32.403zm-278.003-175.868h82v162h-82zm-30 162h-82v-162h82zm-82 30h82v34h-82zm112 0h82v34h-82zm17-305h48c9.374 0 17 7.626 17 17v66h-82v-66c0-9.374 7.626-17 17-17zm-112 0h48c9.374 0 17 7.626 17 17v66h-82v-66c0-9.374 7.626-17 17-17zm48 452h-48c-9.374 0-17-7.626-17-17v-66h82v66c0 9.374-7.626 17-17 17zm112 0h-48c-9.374 0-17-7.626-17-17v-66h82v66c0 9.374-7.626 17-17 17zm47-420.319c.922-6.435 5.439-11.815 11.663-13.796l45.749-14.54c8.933-2.838 18.511 2.125 21.353 11.058l19.991 62.895-78.147 24.84-19.991-62.893c-.296-.929-.618-7.564-.618-7.564zm204.283 394.043c-2.088 4.034-5.624 7.014-9.948 8.391l-45.749 14.54c-8.929 2.838-18.511-2.124-21.353-11.058l-19.991-62.895 78.147-24.84 19.995 62.908c1.377 4.323.986 8.923-1.101 12.954z"/></g></svg>