<?xml version="1.0" encoding="iso-8859-1"?>
<!-- Generator: Adobe Illustrator 19.0.0, SVG Export Plug-In . SVG Version: 6.00 Build 0)  -->
<svg version="1.1" id="Capa_1" xmlns="http://www.w3.org/2000/svg" xmlns:xlink="http://www.w3.org/1999/xlink" x="0px" y="0px"
	 viewBox="0 0 409.6 409.6" style="enable-background:new 0 0 409.6 409.6;" xml:space="preserve">
<g>
	<g>
		<path d="M0,0l34.135,375.465L204.8,409.6l170.665-34.135L409.6,0H0z M343.788,346.998L204.8,374.784L65.812,346.998L37.361,34.135
			h334.848L343.788,346.998z"/>
	</g>
</g>
<g>
	<g>
		<polygon points="153.6,68.265 153.6,294.932 129.183,290.063 126.1,256 91.817,256 97.5,318.536 187.735,336.548 187.735,68.265 
					"/>
	</g>
</g>
<g>
	<g>
		<polygon points="331.735,102.4 334.833,68.265 221.865,68.265 221.865,221.865 286.602,221.865 280.402,290.063 221.865,301.752 
			221.865,336.548 312.1,318.536 323.983,187.735 256,187.735 256,102.4 		"/>
	</g>
</g>
<g>
</g>
<g>
</g>
<g>
</g>
<g>
</g>
<g>
</g>
<g>
</g>
<g>
</g>
<g>
</g>
<g>
</g>
<g>
</g>
<g>
</g>
<g>
</g>
<g>
</g>
<g>
</g>
<g>
</g>
</svg>
