<?xml version="1.0" encoding="UTF-8"?>
<svg xmlns="http://www.w3.org/2000/svg" xmlns:xlink="http://www.w3.org/1999/xlink" version="1.1" id="Capa_1" x="0px" y="0px" viewBox="0 0 512 512" style="enable-background:new 0 0 512 512;" xml:space="preserve" width="512" height="512">
<g>
	<path style="fill:none;stroke:#000000;stroke-width:30;stroke-linecap:round;stroke-linejoin:round;stroke-miterlimit:10;" d="&#10;&#9;&#9;M497,306.185v-100.37h-36.113c-5.326-21.024-13.919-40.777-25.223-58.714l31.342-31.066l-70.809-70.972l-32.76,32.483&#10;&#9;&#9;c-17.634-10.254-36.917-18.059-57.367-22.942V15H205.93v39.604c-20.45,4.883-39.733,12.688-57.367,22.942l-32.76-32.483&#10;&#9;&#9;l-70.809,70.972l31.342,31.066c-11.304,17.937-19.897,37.69-25.223,58.714H15v100.37h36.112&#10;&#9;&#9;c5.326,21.024,13.919,40.778,25.223,58.714l-31.342,31.066l70.809,70.972l32.76-32.483c17.634,10.254,36.917,18.059,57.367,22.942&#10;&#9;&#9;V497H306.07v-39.604c20.45-4.883,39.733-12.688,57.367-22.942l32.76,32.483l70.809-70.972l-31.342-31.066&#10;&#9;&#9;c11.304-17.937,19.897-37.69,25.223-58.714H497z"/>
	<g>
		<g>
			
				<ellipse style="fill:none;stroke:#000000;stroke-width:30;stroke-linecap:round;stroke-linejoin:round;stroke-miterlimit:10;" cx="256" cy="256" rx="140" ry="140.065"/>
		</g>
		<g>
			<path style="fill:none;stroke:#000000;stroke-width:30;stroke-linecap:round;stroke-linejoin:round;stroke-miterlimit:10;" d="&#10;&#9;&#9;&#9;&#9;M279.252,200.553c-3.916-2.928-16.505-10.69-34.207-5.357c-19.767,5.955-24.676,33.003-11.243,43.54&#10;&#9;&#9;&#9;&#9;c7.713,6.05,19.319,11.024,34.96,16.554c35.007,12.375,22.066,61.747-13.543,61.985c-13.896,0.093-20.393-0.79-32.6-8.776"/>
			
				<line style="fill:none;stroke:#000000;stroke-width:30;stroke-linecap:round;stroke-linejoin:round;stroke-miterlimit:10;" x1="255.218" y1="324.59" x2="255.218" y2="335.296"/>
			
				<line style="fill:none;stroke:#000000;stroke-width:30;stroke-linecap:round;stroke-linejoin:round;stroke-miterlimit:10;" x1="255.218" y1="176.704" x2="255.218" y2="188.328"/>
		</g>
	</g>
</g>















</svg>
