<?xml version="1.0" standalone="no"?>
<!DOCTYPE svg PUBLIC "-//W3C//DTD SVG 20010904//EN"
 "http://www.w3.org/TR/2001/REC-SVG-20010904/DTD/svg10.dtd">
<svg version="1.0" xmlns="http://www.w3.org/2000/svg"
 width="225.000000pt" height="225.000000pt" viewBox="0 0 225.000000 225.000000"
 preserveAspectRatio="xMidYMid meet">

<g transform="translate(0.000000,225.000000) scale(0.100000,-0.100000)"
fill="#000000" stroke="none">
<path d="M33 2067 c4 -10 846 -1471 1054 -1829 l38 -66 36 61 c19 34 264 458
543 942 280 483 510 885 513 892 4 11 -73 13 -417 11 l-422 -3 -126 -219 c-88
-153 -129 -214 -135 -205 -4 8 -62 107 -128 222 l-121 207 -420 0 c-340 0
-419 -2 -415 -13z m781 -593 c166 -287 306 -522 311 -522 6 0 145 235 311 522
l301 521 171 3 c95 1 172 0 172 -3 0 -16 -954 -1654 -960 -1648 -10 11 -950
1642 -950 1648 0 3 77 4 172 3 l171 -3 301 -521z"/>
</g>
</svg>
