<svg xmlns="http://www.w3.org/2000/svg" version="1.1" xmlns:xlink="http://www.w3.org/1999/xlink" xmlns:svgjs="http://svgjs.com/svgjs" width="512" height="512" x="0" y="0" viewBox="0 0 511.982 511.982" style="enable-background:new 0 0 512 512" xml:space="preserve" class=""><g><linearGradient id="a" x1="0" x2="511.982" y1="255.991" y2="255.991" gradientUnits="userSpaceOnUse"><stop stop-opacity="1" stop-color="#ffb500" offset="0"></stop><stop stop-opacity="1" stop-color="#ff0002" offset="1"></stop></linearGradient><path fill="url(#a)" d="m341.885 238.36-130-74a20.002 20.002 0 0 0-19.946.091 20.002 20.002 0 0 0-9.947 17.29v148a19.997 19.997 0 0 0 29.893 17.381l130-74c13.396-7.478 13.392-27.287 0-34.762zm-119.894 56.984v-79.205l69.571 39.603zm282.306-145.855c-6.503-45.918-43.306-81.146-89.5-85.668-36.489-3.572-93.661-7.83-158.806-7.83s-122.316 4.258-158.806 7.83c-46.194 4.521-82.997 39.75-89.5 85.667-10.247 72.73-10.247 140.276 0 213.005 6.503 45.918 43.306 81.146 89.5 85.668 36.489 3.572 93.661 7.83 158.806 7.83s122.316-4.258 158.806-7.83c46.194-4.521 82.997-39.75 89.5-85.667 10.247-72.73 10.247-140.276 0-213.005zm-39.606 207.397c-3.906 27.584-26.025 48.747-53.791 51.465-35.604 3.486-91.379 7.641-154.909 7.641s-119.306-4.154-154.909-7.641c-27.766-2.718-49.885-23.881-53.791-51.466-4.844-34.203-7.3-68.148-7.3-100.894s2.456-66.69 7.3-100.895c3.906-27.584 26.025-48.747 53.791-51.465 35.604-3.486 91.379-7.641 154.909-7.641s119.306 4.154 154.909 7.641c27.766 2.718 49.885 23.881 53.791 51.466 9.722 69.018 9.722 132.771 0 201.789z" data-original="url(#a)" class=""></path></g></svg>