<svg height="512pt" viewBox="0 -48 512.0022 512" width="512pt" xmlns="http://www.w3.org/2000/svg" xmlns:xlink="http://www.w3.org/1999/xlink"><linearGradient id="a" gradientUnits="userSpaceOnUse" x1="-.000796" x2="511.9992079672" y1="208.499422984" y2="208.499422984"><stop offset="0" stop-color="#00f2fe"/><stop offset=".0208" stop-color="#03effe"/><stop offset=".2931" stop-color="#24d2fe"/><stop offset=".5538" stop-color="#3cbdfe"/><stop offset=".7956" stop-color="#4ab0fe"/><stop offset="1" stop-color="#4facfe"/></linearGradient><path d="m451.253906 66.984375-.253906-.984375c21.691406-13.003906 39.207031-34.441406 47-59-20.320312 12.089844-44.09375 21.257812-68 26-19.171875-20.425781-44.75-33-75-33-57.972656 0-106 46.9375-106 105 0 8.898438.734375 17.515625 1.714844 25.0625-51.046875-3.964844-99.015625-20.527344-142.882813-49.386719-38.304687-25.195312-58.953125-50.84375-59.128906-51.0625-5.625-7.128906-15.347656-9.578125-23.671875-5.957031-8.328125 3.621094-13.171875 12.394531-11.800781 21.367188.476562 3.097656 10.242187 64.324218 47.144531 117.671874-8.601562-1.339843-13.734375-3.730468-14.71875-4.21875-7.140625-4.230468-15.894531-3.453124-22.390625 1.726563-6.535156 5.210937-8.871094 14.089844-6.265625 22.03125.84375 2.578125 18.394531 53.753906 82.476562 80.875-13.730468 3.960937-25.910156 3.894531-26.066406 3.894531-.136718 0-.273437-.003906-.410156-.003906-8.464844 0-16.03125 5.339844-18.855469 13.347656-2.875 8.136719-.199219 17.199219 6.628907 22.476563 1.542968 1.191406 30.230468 22.988281 76.851562 34.003906-16.308594 8.976563-35.558594 14.378906-57.605469 16.140625-30.511719 2.4375-55.050781-3.34375-55.25-3.394531-10.144531-2.484375-20.492187 3.25-23.761719 13.167969-3.269531 9.917968 1.648438 20.683593 11.285157 24.710937 2.886719 1.203125 71.484375 29.542969 139.710937 29.542969 47.359375 0 82.832032-4.3125 115.007813-13.984375 40.152343-12.074219 74.242187-32.664063 104.207031-62.945313 7.769531-7.851562 7.703125-20.515625-.148438-28.285156-7.855468-7.769531-20.515624-7.703125-28.285156.152344-53.433594 54-114.914062 65.066406-190.78125 65.066406-1.777344 0-3.554687-.023438-5.335937-.070312 21.164062-9.714844 39.3125-23.570313 53.804687-41.253907 4.832032-5.898437 5.894532-14.027343 2.730469-20.96875-3.160156-6.9375-9.992187-11.472656-17.613281-11.699219-20.882813-.613281-39.328125-4.613281-54.523438-9.578124 11.28125-5.730469 22.269532-13.871094 30.9375-25.429688 4.164063-5.550781 5.152344-12.863281 2.613282-19.320312-2.539063-6.457032-8.246094-11.136719-15.074219-12.363282-33.578125-6.035156-55.878907-19.550781-70.34375-32.855468 8.117187-.421876 17.035156-1.652344 26.65625-4.054688 7.054687-1.765625 12.597656-7.21875 14.472656-14.246094 1.875-7.023437-.207031-14.515625-5.445313-19.558594-18.128906-17.46875-31.304687-39.117187-40.730468-59.539062 3.289062 2.355469 6.71875 4.726562 10.28125 7.097656 39.703125 26.386719 104.992187 57.839844 190.570312 57.839844 6.222656 0 12.089844-2.910156 15.871094-7.851562 3.785156-4.9375 5.050781-11.375 3.433594-17.382813-.054688-.195313-5.304688-19.910156-5.304688-40.765625 0-17.222656 6.871094-33.488281 19.351563-45.796875 12.550781-12.382813 29.117187-19.203125 46.648437-19.203125 17.722656 0 33.144532 6.855469 45.835938 20.375 9.164062 8.625 19.164062 31.625 19.164062 45.507812v12.117188c0 .421875.042969.996094.144532 1.675781-.085938.765625-.144532 1.539063-.144532 2.324219 0 45.464844-8.414062 85.941406-25.011718 120.300781-4.804688 9.949219-.632813 21.90625 9.3125 26.710938 2.804687 1.351562 5.765624 1.992187 8.683593 1.992187 7.4375 0 14.574219-4.164062 18.023438-11.304687 19.238281-39.832031 28.992187-86.160157 28.992187-137.699219 0-.761719-.054687-1.511719-.136718-2.25.09375-.6875.136718-1.28125.136718-1.75v-14c20.546875-14.839844 37.945313-34.882812 52-56-.003906 0-36.871094 17.46875-60.75 18.984375zm0 0" fill="url(#a)"/></svg>